<svg width="52" height="24" viewBox="0 0 52 24" fill="none" xmlns="http://www.w3.org/2000/svg">
<path d="M9.10531 6.04981L9.6998 7.90583C9.7676 8.11265 9.95532 8.25053 10.1691 8.25053L12.0881 8.24523C12.4688 8.24523 12.6304 8.73841 12.3228 8.96644L10.774 10.1172C10.6019 10.2445 10.5289 10.4672 10.5967 10.674L11.1912 12.53C11.3111 12.896 10.894 13.2035 10.5863 12.9808L9.03232 11.8354C8.86023 11.7081 8.62558 11.7081 8.45874 11.8354L6.90998 12.9861C6.60232 13.2142 6.18516 12.9066 6.30508 12.5407L6.89435 10.6846C6.96214 10.4778 6.88914 10.2551 6.71705 10.1278L5.16307 8.98238C4.85541 8.75435 5.01184 8.26117 5.39251 8.25585L7.31149 8.25055C7.5253 8.25055 7.71302 8.11267 7.7756 7.90585L8.36487 6.04982C8.47438 5.68391 8.98539 5.6839 9.10531 6.04981Z" fill="black"/>
<path d="M17.7342 6.03418L18.3287 7.89021C18.3965 8.09702 18.5842 8.23491 18.798 8.23491L20.717 8.2296C21.0977 8.2296 21.2593 8.72279 20.9517 8.95081L19.4029 10.1016C19.2256 10.2289 19.1578 10.4516 19.2204 10.6584L19.8149 12.5144C19.9348 12.8803 19.5176 13.1879 19.21 12.9652L17.6612 11.8197C17.4891 11.6925 17.2545 11.6925 17.0876 11.8197L15.5389 12.9705C15.2312 13.1985 14.8141 12.891 14.934 12.525L15.5233 10.669C15.591 10.4622 15.518 10.2395 15.346 10.1122L13.792 8.96675C13.4843 8.73873 13.6407 8.24554 14.0214 8.24023L15.9404 8.23492C16.1542 8.23492 16.3419 8.09704 16.4045 7.89022L16.9938 6.0342C17.1033 5.66829 17.6143 5.66827 17.7342 6.03418Z" fill="black"/>
<path d="M26.3709 6.01863L26.9654 7.87465C27.0332 8.08147 27.221 8.21935 27.4347 8.21935L29.3537 8.21405C29.7344 8.21405 29.8961 8.70723 29.5884 8.93526L28.0396 10.086C27.8675 10.2133 27.7945 10.436 27.8623 10.6428L28.4568 12.4989C28.5768 12.8648 28.1596 13.1723 27.8519 12.9496L26.2979 11.8042C26.1259 11.6769 25.8912 11.6769 25.7244 11.8042L24.1756 12.9549C23.8679 13.183 23.4508 12.8754 23.5707 12.5095L24.16 10.6535C24.2278 10.4467 24.1548 10.2239 23.9827 10.0966L22.4287 8.9512C22.121 8.72317 22.2775 8.22999 22.6581 8.22467L24.5771 8.21937C24.7909 8.21937 24.9786 8.08149 25.0412 7.87467L25.6305 6.01864C25.7348 5.64743 26.251 5.64741 26.3709 6.01863Z" fill="black"/>
<path d="M34.9998 5.99707L35.5943 7.8531C35.6621 8.05991 35.8499 8.1978 36.0637 8.1978L37.9826 8.19249C38.3633 8.19249 38.525 8.68568 38.2173 8.9137L36.6685 10.0645C36.4965 10.1917 36.4235 10.4145 36.4912 10.6213L37.0857 12.4773C37.2057 12.8432 36.7885 13.1508 36.4808 12.9281L34.9269 11.7826C34.7548 11.6554 34.5201 11.6554 34.3533 11.7826L32.8045 12.9334C32.4969 13.1614 32.0797 12.8538 32.1996 12.4879L32.7889 10.6319C32.8567 10.4251 32.7837 10.2024 32.6116 10.0751L31.0576 8.92964C30.7499 8.70162 30.9064 8.20844 31.287 8.20312L33.206 8.19782C33.4198 8.19782 33.6076 8.05994 33.6701 7.85312L34.2594 5.99709C34.3689 5.63118 34.8799 5.63116 34.9998 5.99707Z" fill="black"/>
<path d="M43.6307 5.98145L44.2252 7.83747C44.293 8.04429 44.4807 8.18217 44.6945 8.18217L46.6135 8.17687C46.9942 8.17687 47.1558 8.67005 46.8482 8.89808L45.2994 10.0488C45.1273 10.1761 45.0543 10.3988 45.1221 10.6057L45.7166 12.4617C45.8365 12.8276 45.4194 13.1352 45.1117 12.9125L43.5577 11.767C43.3856 11.6397 43.151 11.6397 42.9841 11.767L41.4354 12.9178C41.1277 13.1458 40.7106 12.8382 40.8305 12.4723L41.4197 10.6163C41.4875 10.4095 41.4145 10.1867 41.2424 10.0595L39.6885 8.91402C39.3808 8.68599 39.5372 8.19281 39.9179 8.18749L41.8369 8.18219C42.0507 8.18219 42.2384 8.04431 42.301 7.83749L42.8903 5.98146C42.9998 5.61555 43.516 5.61554 43.6307 5.98145Z" fill="black"/>
<path d="M45.628 23.0144C45.4142 23.0144 45.2056 22.9242 45.0544 22.7599L40.8201 18.141H4.40615C2.08045 18.141 0.1875 16.216 0.1875 13.8508V4.91515C0.1875 2.55004 2.0804 0.625 4.40615 0.625H47.5938C49.9195 0.625 51.8125 2.54998 51.8125 4.91515V13.8508C51.8125 16.2159 49.9196 18.141 47.5938 18.141H46.4101V22.219C46.4101 22.5478 46.212 22.8394 45.9148 22.9614C45.8209 22.9985 45.7218 23.0144 45.628 23.0144ZM41.7639 16.8363L44.8458 20.1985V17.3454C44.8458 16.9053 45.1951 16.55 45.6279 16.55H47.5938C49.0592 16.55 50.2481 15.3409 50.2481 13.8507V4.91509C50.2481 3.42493 49.0592 2.21585 47.5938 2.21585H4.40615C2.94082 2.21585 1.75189 3.42493 1.75189 4.91509V13.8507C1.75189 15.3409 2.94082 16.55 4.40615 16.55H41.1639C41.4037 16.55 41.6227 16.6614 41.7635 16.8364L41.7639 16.8363Z" fill="black"/>
</svg>
