<svg width="56" height="56" viewBox="0 0 56 56" fill="none" xmlns="http://www.w3.org/2000/svg">
<path d="M53.4014 10.881C53.293 10.8354 53.1792 10.8223 53.0664 10.8223V10.8145H20.6914C20.4586 10.8145 20.2364 10.9063 20.0727 11.0708L9.57362 21.5698C9.41521 21.7281 9.31641 21.9468 9.31641 22.1892V44.0642C9.31641 44.548 9.7076 44.9392 10.1914 44.9392H42.5664C42.8089 44.9392 43.0276 44.8404 43.1858 44.682L53.6849 34.183C53.8495 34.0193 53.9414 33.797 53.9414 33.5642V11.6892C53.9414 11.3358 53.7288 11.0155 53.4014 10.8808L53.4014 10.881ZM42.2042 21.3143H33.3035L42.0535 12.5643H50.9542L42.2042 21.3143ZM39.5792 12.5643L30.5726 21.5705C30.4082 21.7342 30.3163 21.9564 30.3163 22.1892V30.1799L29.0519 29.3364C28.7579 29.1396 28.3756 29.1396 28.0816 29.3364L25.9413 30.7625L23.8019 29.3363C23.655 29.2384 23.4851 29.1894 23.3163 29.1894C23.1475 29.1894 22.9776 29.2384 22.8307 29.3363L21.5663 30.1799V22.5518L31.5534 12.5642L39.5792 12.5643ZM21.0535 12.5643H29.0792L20.3292 21.3143H12.3035L21.0535 12.5643ZM41.6914 43.1893H11.0664V23.0643H19.8164V31.8143C19.8164 32.1371 19.9939 32.4337 20.2783 32.5861C20.5618 32.7383 20.9083 32.7208 21.1761 32.5423L23.3164 31.1161L25.4557 32.5423C25.7498 32.7392 26.132 32.7392 26.4261 32.5423L28.5664 31.1161L30.7057 32.5423C30.8519 32.6393 31.0216 32.6893 31.1914 32.6893C31.3332 32.6893 31.4748 32.6552 31.6044 32.5861C31.8888 32.4337 32.0664 32.1371 32.0664 31.8143V23.0643H41.6914L41.6914 43.1893ZM52.1914 33.2021L43.4414 41.9521V22.5514L52.1914 13.8014V33.2021Z" fill="black"/>
<path d="M5.81641 18.6895C5.81641 19.1732 6.2076 19.5645 6.69141 19.5645C7.17521 19.5645 7.56641 19.1733 7.56641 18.6895C7.56641 17.2422 8.74418 16.0645 10.1914 16.0645C10.6752 16.0645 11.0664 15.6733 11.0664 15.1895C11.0664 14.7057 10.6752 14.3145 10.1914 14.3145C8.74418 14.3145 7.56641 13.1367 7.56641 11.6895C7.56641 11.2057 7.17521 10.8145 6.69141 10.8145C6.2076 10.8145 5.81641 11.2057 5.81641 11.6895C5.81641 13.1367 4.63863 14.3145 3.19141 14.3145C2.70761 14.3145 2.31641 14.7057 2.31641 15.1895C2.31641 15.6733 2.7076 16.0645 3.19141 16.0645C4.63863 16.0645 5.81641 17.2422 5.81641 18.6895ZM6.69141 14.3119C6.94078 14.6444 7.23647 14.9401 7.56897 15.1895C7.23647 15.4388 6.94079 15.7345 6.69141 16.067C6.44203 15.7345 6.14634 15.4388 5.81384 15.1895C6.14634 14.9401 6.44202 14.6444 6.69141 14.3119Z" fill="black"/>
</svg>
