<?xml version="1.0" encoding="UTF-8"?><svg id="Capa_1" data-name="Capa 1" xmlns="http://www.w3.org/2000/svg" width="78.9mm" height="79mm" version="1.1" viewBox="0 0 223.7 224"><defs><style>.cls-1 {
        fill: #000;
        stroke-width: 0px;
      }</style></defs><path class="cls-1" d="M217.4,187.2c8.3,8.3,8.3,21.8,0,30.2s-9.6,6.3-15.1,6.3-10.9-2.1-15.1-6.3l-75.4-75.4-75.4,75.4c-4.2,4.2-9.6,6.3-15.1,6.3s-10.9-2.1-15.1-6.3c-8.3-8.3-8.3-21.8,0-30.2l75.4-75.4L6.2,36.4C-2.1,28.1-2.1,14.6,6.2,6.2c8.3-8.3,21.8-8.3,30.2,0l75.4,75.4L187.2,6.2c8.3-8.3,21.8-8.3,30.2,0,8.3,8.3,8.3,21.8,0,30.2l-75.4,75.4,75.4,75.4h0Z"/></svg>