<?xml version="1.0" encoding="iso-8859-1"?>
<!-- Generator: Adobe Illustrator 18.1.1, SVG Export Plug-In . SVG Version: 6.00 Build 0)  -->
<svg version="1.1" id="Capa_1" xmlns="http://www.w3.org/2000/svg" xmlns:xlink="http://www.w3.org/1999/xlink" x="0px" y="0px"
	 viewBox="-8.409 141 430.818 512" style="enable-background:new -8.409 141 430.818 512;" xml:space="preserve">
<path style="fill:#D40707;" d="M370.146,548.476h-5.722V382.307c0-86.805-70.621-157.425-157.425-157.425l0,0
	c-86.805,0-157.425,70.621-157.425,157.425v166.169h-5.722c-28.817,0-52.262,23.445-52.262,52.262
	c0,28.817,23.445,52.262,52.262,52.262h326.294c28.817,0,52.262-23.445,52.262-52.262
	C422.408,571.921,398.964,548.476,370.146,548.476z M79.573,382.307c0-70.264,57.164-127.427,127.428-127.427
	s127.427,57.164,127.427,127.427v166.169h-71.065v-84.839c0-31.078-25.284-56.362-56.362-56.362l0,0
	c-31.078,0-56.362,25.284-56.362,56.362v84.839H79.573V382.307z M233.363,548.476h-52.727v-84.839
	c0-14.537,11.827-26.363,26.364-26.363c14.536,0,26.363,11.826,26.363,26.363V548.476z M370.146,578.474
	c12.276,0,22.264,9.987,22.264,22.264c0,12.276-9.987,22.264-22.264,22.264H43.853c-12.276,0-22.264-9.987-22.264-22.264
	c0-12.276,9.987-22.264,22.264-22.264L370.146,578.474"/>
<path style="fill:#D40707;" d="M208.119,207.875c8.284,0,14.999-6.716,14.999-14.999v-36.877c0-8.284-6.716-14.999-14.999-14.999
	s-14.999,6.716-14.999,14.999v36.877C193.12,201.161,199.836,207.875,208.119,207.875z"/>
<path style="fill:#D40707;" d="M77.406,242.681c2.93,2.929,6.768,4.394,10.606,4.394c3.838,0,7.678-1.465,10.605-4.394
	c5.858-5.857,5.858-15.354,0-21.212l-26.075-26.077c-5.859-5.858-15.354-5.857-21.212,0c-5.858,5.858-5.858,15.354,0,21.212
	L77.406,242.681z"/>
<path style="fill:#D40707;" d="M329.396,247.074c3.839,0,7.678-1.464,10.606-4.394l26.076-26.077c5.857-5.858,5.857-15.354,0-21.212
	c-5.857-5.857-15.354-5.858-21.212,0l-26.076,26.077c-5.857,5.858-5.857,15.354,0,21.212
	C321.719,245.61,325.558,247.074,329.396,247.074z"/>
</svg>
