<?xml version="1.0" encoding="UTF-8"?><svg id="Layer_1" data-name="Layer 1" xmlns="http://www.w3.org/2000/svg" width="386.5" height="387" version="1.1" viewBox="0 0 386.5 387"><defs><style>.cls-1 {
        fill: #7f7f7f;
        stroke-width: 0px;
      }</style></defs><g><path class="cls-1" d="M303.3,238.8c-7.8-8.1-17.1-12.4-27-12.4s-19.3,4.2-27.4,12.3l-25.3,25.2c-2.1-1.1-4.2-2.2-6.2-3.2-2.9-1.4-5.6-2.8-7.9-4.2-23.7-15-45.2-34.6-65.8-60-10-12.6-16.7-23.3-21.6-34.1,6.6-6,12.6-12.2,18.6-18.2,2.2-2.2,4.5-4.6,6.7-6.8,16.8-16.8,16.8-38.6,0-55.4l-21.8-21.8c-2.5-2.5-5-5-7.4-7.6-4.8-5-9.8-10.1-15-14.9-7.8-7.7-17-11.8-26.8-11.8s-19.2,4.1-27.2,11.8l-.2.2-27.2,27.4c-10.2,10.2-16.1,22.7-17.4,37.2-1.9,23.4,5,45.1,10.2,59.4,13,35,32.3,67.4,61.2,102.1,35,41.8,77.2,74.9,125.4,98.2,18.4,8.7,43,19,70.4,20.8,1.7,0,3.4.2,5,.2,18.5,0,34-6.6,46.2-19.8,0-.2.2-.2.3-.4,4.2-5,9-9.6,14-14.5,3.4-3.3,7-6.7,10.4-10.3,7.9-8.2,12.1-17.8,12.1-27.7s-4.2-19.4-12.3-27.4l-43.9-44.1ZM331.9,323c0,0,0,0,0,0-3.1,3.4-6.3,6.4-9.8,9.8-5.2,5-10.5,10.2-15.4,16-8.1,8.6-17.6,12.7-30.1,12.7s-2.5,0-3.7,0c-23.8-1.5-45.8-10.8-62.4-18.7-45.3-21.9-85-53-118.1-92.5-27.3-32.9-45.5-63.3-57.6-95.9-7.4-19.9-10.2-35.4-9-50.1.8-9.4,4.4-17.1,11-23.8l27.3-27.3c3.9-3.7,8.1-5.7,12.2-5.7s9.1,3,11.7,5.6l.2.2c4.9,4.6,9.5,9.3,14.4,14.3,2.5,2.6,5,5.1,7.6,7.8l21.8,21.8c8.5,8.5,8.5,16.3,0,24.8-2.3,2.3-4.6,4.6-6.9,6.9-6.7,6.9-13.1,13.3-20.1,19.5-.2.2-.3.2-.4.4-6.9,6.9-5.6,13.6-4.2,18.2l.2.7c5.7,13.8,13.7,26.7,25.8,42.2h0c22.1,27.3,45.4,48.5,71,64.7,3.3,2.1,6.6,3.8,9.8,5.4,2.9,1.4,5.6,2.8,7.9,4.2.3.2.6.4,1,.6,2.7,1.4,5.3,2,7.9,2,6.6,0,10.8-4.2,12.2-5.5l27.4-27.4c2.7-2.7,7-6,12.1-6s9,3.1,11.5,5.8l44.2,44.2c8.2,8.2,8.2,16.6,0,25h0ZM331.9,323"/><path class="cls-1" d="M276.6,387c-1.7,0-3.5,0-5.2-.2-27.9-1.8-53.1-12.3-71.9-21.2-48.7-23.5-91.3-56.9-126.7-99.2-29.1-34.9-48.7-67.8-61.9-103.3C5.4,148.6-1.6,126.3.3,102.2c1.4-15.4,7.6-28.8,18.5-39.7l27.4-27.6c8.8-8.5,19.2-12.9,30-12.9s21,4.4,29.6,12.9c5.3,4.9,10.4,10.1,15.2,15,2.3,2.4,4.7,4.9,7.1,7.2l22.2,22.2c18.2,18.3,18.2,42.8,0,61-1.1,1.1-2.2,2.2-3.2,3.3-1.2,1.2-2.3,2.4-3.5,3.5l-1.7,1.7c-4.8,4.8-9.7,9.8-14.9,14.7,4.7,9.7,10.9,19.3,19.9,30.6,20.3,24.9,41.5,44.3,64.8,59.1,2.1,1.3,4.7,2.6,7.5,4h.1c.7.4,1.3.7,2,1.1.5.3,1,.5,1.6.8l23.2-23.1c8.8-8.8,19.3-13.5,30.2-13.5s21.3,4.7,29.9,13.6l43.9,44.1c8.8,8.7,13.5,19.2,13.5,30.3s-4.6,21.5-13.2,30.5c-3,3.1-6.2,6.3-10.5,10.4l-1,1c-4.6,4.4-8.9,8.6-12.6,13,0,0-.1.1-.2.2h0c0,0-.4.5-.4.5-12.9,14-29.4,21.1-49.1,21.1ZM76.3,29.9c-8.7,0-17.2,3.7-24.4,10.6h0c0,0-27.2,27.5-27.2,27.5-9.6,9.6-15,21.3-16.2,34.7-1.8,22.5,4.8,43.6,10,57.6,12.8,34.6,32.1,66.7,60.5,100.9,34.7,41.4,76.4,74.1,124,97.1,18.2,8.6,42.4,18.7,68.9,20.4,1.6,0,3.3.2,4.8.2,17.2,0,31.7-6.2,43-18.3.1-.1.2-.2.3-.3h0c4-5,8.5-9.3,13.3-13.9l1-1c4.2-4,7.4-7.2,10.3-10.2,7.2-7.5,11-16.1,11-24.9s-3.8-17.4-11.1-24.6l-44-44.1c-7-7.3-15.4-11.2-24.2-11.2s-17.2,3.9-24.5,11.1l-27.4,27.3-2.6-1.4c-1.4-.7-2.7-1.4-4.1-2.1-.7-.4-1.4-.7-2-1.1-2.9-1.5-5.7-2.9-8.2-4.4-24.1-15.3-45.9-35.2-66.8-60.9-10.2-12.9-17.1-23.7-22.1-35l-1.2-2.6,2.1-2c5.9-5.4,11.4-11,16.7-16.4l1.7-1.7c1.2-1.2,2.3-2.3,3.4-3.5,1.1-1.1,2.2-2.2,3.3-3.3,15.3-15.3,15.3-34.4,0-49.7l-22.2-22.2c-2.4-2.4-4.9-4.9-7.2-7.3-4.6-4.8-9.6-9.9-14.8-14.7h-.1c-7-7-15.3-10.7-24-10.7ZM276.6,365.5c-1.2,0-2.6,0-3.9,0-24.5-1.6-47-11-63.9-19.1-45.9-22.2-86-53.7-119.4-93.5-27.5-33.2-46-64-58.3-97.1-7.6-20.4-10.5-36.4-9.2-51.8.9-10.4,4.9-18.9,12.2-26.3l27.4-27.4c4.7-4.4,9.9-6.8,14.9-6.8s10.1,2.3,14.5,6.8l.2.2c5.2,4.9,10.2,10,14.5,14.4,1.2,1.3,2.5,2.5,3.7,3.8,1.3,1.3,2.6,2.6,3.9,3.9l21.8,21.8c5.1,5.1,7.5,10,7.5,15.2s-2.5,10.2-7.5,15.2c-.8.8-1.5,1.5-2.2,2.3-1.5,1.5-3.1,3.1-4.6,4.6-7.2,7.3-13.4,13.5-20.2,19.6,0,0,0,0,0,0l-.3.3c-4.8,4.8-4.8,9.1-3.2,14.1l.2.5c5.4,13.1,13.2,25.8,25.1,40.9l.2.2c21.9,26.9,44.8,47.8,70.1,63.8,3.1,2,6.4,3.6,9.5,5.2,3,1.5,5.7,2.8,8.1,4.3.2.1.4.2.6.4,0,0,.1,0,.2.1,2.1,1.1,4.1,1.6,6.1,1.6,5,0,8.1-3.2,9.3-4.3l27.4-27.4c3.3-3.3,8.5-7.2,14.9-7.2s12,4.4,14.4,7.1l44.2,44.2c9.8,9.7,9.8,20.6.2,30.6-2.6,2.8-5.3,5.4-8.1,8.2l-1.8,1.7c-5,4.8-10.3,10-15.2,15.7h-.1c-8.9,9.7-19.4,14.1-33,14.1ZM67,56.1l-27.2,27.2c-5.9,5.9-9.2,12.9-9.9,21.3-1.2,14.2,1.5,29.1,8.7,48.3,11.9,32.2,30,62.3,56.9,94.8,32.6,39,71.9,69.7,116.7,91.4,16.2,7.8,37.8,16.8,60.9,18.3,1.1,0,2.3,0,3.4,0,11.3,0,19.7-3.5,27.1-11.4,5.1-6,10.5-11.3,15.7-16.2l1.7-1.7c2.5-2.4,4.8-4.7,7.1-7.1l.5-2h1.4c5.5-6.4,5.1-12.1-1.1-18.2l-44.4-44.4c-1.5-1.7-4.7-4.5-8.6-4.5s-7.1,2.6-9.3,4.8l-27.4,27.4c-4.4,4.4-9.5,6.7-15,6.7s-6.4-.8-9.7-2.4-.5-.3-.8-.5c0,0-.1,0-.2-.1l-.3-.2c-2.1-1.3-4.8-2.6-7.5-4-3.2-1.6-6.8-3.4-10.3-5.6-26-16.4-49.5-37.8-71.9-65.3l-.3-.3c-12.5-15.9-20.6-29.2-26.4-43.1v-.3c0,0-.3-.7-.3-.7-1.8-5.6-3.1-13.8,4.9-22,.3-.3.5-.6.7-.7h0c6.7-6.1,12.8-12.1,19.9-19.4h0c1.5-1.6,3-3,4.5-4.6.8-.8,1.5-1.5,2.3-2.3,6.9-6.9,6.9-12.3,0-19.1l-21.8-21.8c-1.3-1.4-2.6-2.7-3.9-3.9-1.3-1.3-2.5-2.6-3.8-3.9-4.2-4.4-9.2-9.4-14.3-14.2l-.3-.3c-2-2-5.2-4.4-8.8-4.4s-6.2,1.6-9.4,4.6Z"/></g><g><path class="cls-1" d="M208.6,94.2c21,3.5,40,13.4,55.2,28.6,15.2,15.2,25,34.2,28.6,55.2.9,5.3,5.4,9,10.6,9s1.2,0,1.8-.2c5.9-1,9.8-6.6,8.9-12.5-4.3-25.4-16.3-48.5-34.6-66.8-18.3-18.3-41.4-30.3-66.8-34.6-5.9-1-11.4,3-12.5,8.8-1,5.8,2.8,11.5,8.7,12.5h0ZM208.6,94.2"/><path class="cls-1" d="M303.1,191c-7.3,0-13.4-5.2-14.6-12.3-3.5-20.1-13-38.5-27.5-53-14.6-14.6-33-24.2-53-27.5-3.9-.6-7.2-2.7-9.5-5.9-2.3-3.3-3.2-7.2-2.5-11.2,1.4-8.1,8.9-13.4,17.1-12,26.2,4.5,50.1,16.8,69,35.8,18.9,18.9,31.3,42.8,35.8,69,1.3,8.1-4.1,15.8-12.2,17.1h-.4c-.6.1-1.3.2-2.1.2ZM210.5,76.7c-3.3,0-6.1,2.3-6.7,5.7-.3,1.8,0,3.7,1.1,5.2,1,1.4,2.5,2.4,4.3,2.7h0c21.7,3.6,41.5,13.9,57.4,29.8s26,35.6,29.8,57.4c.5,3.3,3.4,5.6,6.7,5.6s.6,0,1.1,0h.2c3.6-.7,6.1-4.2,5.5-7.9-4.2-24.5-15.8-46.9-33.5-64.6-17.8-17.8-40.1-29.3-64.6-33.5-.4,0-.8,0-1.1,0Z"/></g><g><path class="cls-1" d="M382.3,171.2c-7.1-41.8-26.8-79.8-57-110-30.2-30.2-68.2-49.9-110-57-5.8-1-11.4,3-12.4,8.8-1,5.9,3,11.4,8.9,12.5,37.3,6.3,71.3,24,98.3,51,27,27,44.6,61,51,98.3.9,5.3,5.4,9,10.6,9s1.2,0,1.8-.2c5.8-.9,9.8-6.5,8.8-12.3h0ZM382.3,171.2"/><path class="cls-1" d="M371.7,187.7c-7.3,0-13.4-5.2-14.6-12.3-6.2-36.5-23.4-69.7-49.8-96.1-26.5-26.4-59.8-43.7-96.2-49.8-8.1-1.4-13.5-8.9-12.2-17.1.7-3.9,2.8-7.3,6-9.6,3.2-2.3,7.1-3.2,11-2.5,42.6,7.3,81.3,27.4,112.1,58.1,30.8,30.8,50.9,69.6,58.2,112.1.7,3.9-.2,7.8-2.5,11.1-2.3,3.2-5.7,5.3-9.6,5.9h-.2c-.6.1-1.4.2-2.2.2ZM213.4,8c-1.4,0-2.7.4-3.8,1.2-1.5,1.1-2.5,2.6-2.8,4.4-.6,3.7,1.9,7.2,5.6,7.8,38,6.4,72.8,24.4,100.5,52.1,27.6,27.6,45.6,62.4,52.1,100.5.5,3.3,3.4,5.6,6.7,5.6s.7,0,1.2-.1h.1c1.7-.3,3.2-1.2,4.2-2.7,1.1-1.5,1.5-3.2,1.1-5h0c-7-41-26.3-78.3-55.9-107.9-29.6-29.6-66.9-48.9-107.8-55.9-.4,0-.8-.1-1.2-.1Z"/></g></svg>